<svg width="1600" height="599" viewBox="0 0 1600 599" fill="none" xmlns="http://www.w3.org/2000/svg">
<path d="M1098.25 58.375C1105.62 58.375 1108 56.7188 1108 54.3438C1108 52 1105.69 50.4375 1098.25 50.4375C1090.88 50.4375 1088.5 51.9375 1088.5 54.3438C1088.5 56.7812 1090.94 58.375 1098.25 58.375ZM1098.25 36.3438C1091.88 36.3438 1090.47 37.3438 1090.47 39.0938C1090.47 40.875 1091.81 41.875 1098.25 41.875C1104.72 41.875 1106.06 40.875 1106.06 39.0938C1106.06 37.3438 1104.62 36.3438 1098.25 36.3438ZM1115.09 45.3438C1122.12 47.25 1124.91 50.9375 1124.91 56.4688C1124.91 65.25 1118.88 70 1098.25 70C1077.59 70 1071.62 65.3125 1071.62 56.4688C1071.62 50.9375 1074.34 47.25 1081.44 45.3438C1077.91 43.5938 1076.16 40.8125 1076.16 37.0312C1076.16 29.4688 1082.16 25.9688 1098.25 25.9688C1114.34 25.9688 1120.34 29.5 1120.34 37.0312C1120.34 40.75 1118.59 43.5312 1115.09 45.3438ZM1144.48 46.4688H1164.48C1165.45 46.4688 1166.29 46.125 1166.98 45.4375C1167.7 44.7188 1168.04 43.875 1168.04 42.9062C1168.04 41.9062 1167.7 41.0625 1166.98 40.375C1166.29 39.6562 1165.45 39.3125 1164.48 39.3125H1144.48V46.4688ZM1128.11 27.0312H1168.58C1177.23 26.9375 1184.58 34.2188 1184.45 42.9062C1184.58 51.5625 1177.23 58.9062 1168.58 58.7812H1144.48V69.0312H1128.11V27.0312ZM1190.84 68.9688V26.9688H1211.34L1227.71 47.9688L1244.12 26.9688H1264.59V68.9688H1248.21V46.5625L1231.81 68.9688H1223.62L1207.21 46.5625V68.9688H1190.84Z" fill="white"/>
<path d="M1073.13 116V96.4H1076.35V116H1073.13ZM1085.59 116V96.4H1088.81V116H1085.59ZM1075.34 107.32V104.38H1086.29V107.32H1075.34ZM1093.9 116V96.4H1097.12V116H1093.9ZM1107.13 116V96.96H1110.35V116H1107.13ZM1100.75 99.34V96.4H1116.74V99.34H1100.75ZM1126.39 116V96.4H1128.63L1136.78 109.812H1135.32L1143.47 96.4H1145.71V116H1142.49V102.056L1143.22 102.252L1137.17 112.192H1134.93L1128.88 102.252L1129.61 102.056V116H1126.39ZM1149.34 116L1157.41 96.4H1159.65L1167.66 116H1164.18L1157.91 100.124H1159.09L1152.76 116H1149.34ZM1153.32 112.22V109.42H1163.71V112.22H1153.32ZM1182.93 116L1173.85 105.78L1182.73 96.4H1186.85L1177.05 106.592V104.828L1187.13 116H1182.93ZM1171.08 116V96.4H1174.3V116H1171.08ZM1190.24 116V96.4H1193.46V116H1190.24ZM1192.45 116V113.06H1203.43V116H1192.45ZM1192.45 107.404V104.576H1202.48V107.404H1192.45ZM1192.45 99.34V96.4H1203.29V99.34H1192.45ZM1209.81 107.684V105.024H1214.77C1215.76 105.024 1216.52 104.772 1217.06 104.268C1217.62 103.745 1217.9 103.027 1217.9 102.112C1217.9 101.291 1217.63 100.6 1217.09 100.04C1216.55 99.48 1215.78 99.2 1214.79 99.2H1209.81V96.4H1214.93C1216.17 96.4 1217.25 96.652 1218.18 97.156C1219.12 97.6413 1219.83 98.3133 1220.34 99.172C1220.86 100.012 1221.12 100.973 1221.12 102.056C1221.12 103.195 1220.86 104.184 1220.34 105.024C1219.83 105.864 1219.12 106.517 1218.18 106.984C1217.25 107.451 1216.17 107.684 1214.93 107.684H1209.81ZM1207.6 116V96.4H1210.82V116H1207.6ZM1218.35 116L1211.49 107.488L1214.49 106.396L1222.41 116H1218.35ZM1230.52 116.28C1228.97 116.28 1227.66 116 1226.57 115.44C1225.49 114.88 1224.52 114.059 1223.66 112.976L1225.85 110.792C1226.39 111.576 1227.03 112.192 1227.78 112.64C1228.53 113.069 1229.48 113.284 1230.63 113.284C1231.72 113.284 1232.58 113.06 1233.21 112.612C1233.86 112.164 1234.19 111.548 1234.19 110.764C1234.19 110.111 1234.02 109.579 1233.69 109.168C1233.35 108.757 1232.9 108.421 1232.34 108.16C1231.8 107.88 1231.19 107.637 1230.52 107.432C1229.87 107.208 1229.21 106.965 1228.53 106.704C1227.88 106.424 1227.27 106.079 1226.71 105.668C1226.17 105.257 1225.73 104.725 1225.4 104.072C1225.06 103.419 1224.89 102.588 1224.89 101.58C1224.89 100.423 1225.17 99.4427 1225.73 98.64C1226.31 97.8187 1227.09 97.1933 1228.06 96.764C1229.03 96.3347 1230.11 96.12 1231.31 96.12C1232.59 96.12 1233.74 96.372 1234.75 96.876C1235.78 97.38 1236.61 98.024 1237.24 98.808L1235.06 100.992C1234.5 100.357 1233.91 99.8907 1233.29 99.592C1232.7 99.2747 1232.01 99.116 1231.22 99.116C1230.25 99.116 1229.49 99.312 1228.93 99.704C1228.39 100.096 1228.11 100.647 1228.11 101.356C1228.11 101.953 1228.28 102.439 1228.62 102.812C1228.95 103.167 1229.39 103.475 1229.93 103.736C1230.49 103.979 1231.1 104.212 1231.75 104.436C1232.43 104.66 1233.09 104.912 1233.74 105.192C1234.41 105.472 1235.02 105.836 1235.56 106.284C1236.12 106.713 1236.57 107.273 1236.91 107.964C1237.24 108.655 1237.41 109.523 1237.41 110.568C1237.41 112.323 1236.79 113.713 1235.53 114.74C1234.3 115.767 1232.63 116.28 1230.52 116.28ZM1241.04 119.276L1242.95 115.72L1243.98 115.44C1243.87 115.664 1243.74 115.851 1243.59 116C1243.44 116.149 1243.26 116.224 1243.06 116.224C1242.63 116.224 1242.23 116.047 1241.85 115.692C1241.5 115.319 1241.32 114.852 1241.32 114.292C1241.32 113.695 1241.52 113.191 1241.91 112.78C1242.32 112.351 1242.82 112.136 1243.42 112.136C1243.98 112.136 1244.47 112.351 1244.88 112.78C1245.31 113.191 1245.52 113.695 1245.52 114.292C1245.52 114.535 1245.47 114.824 1245.35 115.16C1245.26 115.477 1245.08 115.888 1244.82 116.392L1242.75 120.2L1241.04 119.276ZM1258.7 116V113.2H1264.33C1265.31 113.2 1266.08 112.892 1266.62 112.276C1267.16 111.66 1267.43 110.951 1267.43 110.148C1267.43 109.607 1267.31 109.103 1267.07 108.636C1266.83 108.169 1266.47 107.796 1266.01 107.516C1265.54 107.236 1264.98 107.096 1264.33 107.096H1258.7V104.296H1263.85C1264.69 104.296 1265.36 104.081 1265.87 103.652C1266.37 103.223 1266.62 102.588 1266.62 101.748C1266.62 100.908 1266.37 100.273 1265.87 99.844C1265.36 99.4147 1264.69 99.2 1263.85 99.2H1258.7V96.4H1263.93C1265.26 96.4 1266.36 96.6427 1267.24 97.128C1268.11 97.6133 1268.77 98.2387 1269.2 99.004C1269.63 99.7693 1269.84 100.591 1269.84 101.468C1269.84 102.495 1269.55 103.4 1268.97 104.184C1268.41 104.968 1267.58 105.603 1266.48 106.088L1266.73 105.08C1267.97 105.584 1268.93 106.293 1269.62 107.208C1270.31 108.123 1270.65 109.196 1270.65 110.428C1270.65 111.436 1270.4 112.36 1269.9 113.2C1269.41 114.04 1268.68 114.721 1267.71 115.244C1266.76 115.748 1265.59 116 1264.19 116H1258.7ZM1256.49 116V96.4H1259.71V116H1256.49ZM1283.76 116.28C1282.36 116.28 1281.05 116.019 1279.84 115.496C1278.63 114.973 1277.56 114.255 1276.65 113.34C1275.73 112.407 1275.01 111.333 1274.49 110.12C1273.99 108.888 1273.74 107.572 1273.74 106.172C1273.74 104.772 1273.99 103.465 1274.49 102.252C1275.01 101.039 1275.72 99.9747 1276.62 99.06C1277.53 98.1267 1278.59 97.408 1279.78 96.904C1281 96.3813 1282.3 96.12 1283.7 96.12C1285.1 96.12 1286.4 96.3813 1287.6 96.904C1288.81 97.408 1289.87 98.1267 1290.79 99.06C1291.7 99.9747 1292.41 101.048 1292.92 102.28C1293.44 103.493 1293.7 104.8 1293.7 106.2C1293.7 107.6 1293.44 108.916 1292.92 110.148C1292.41 111.361 1291.7 112.425 1290.79 113.34C1289.89 114.255 1288.84 114.973 1287.62 115.496C1286.43 116.019 1285.14 116.28 1283.76 116.28ZM1283.7 113.2C1285.03 113.2 1286.19 112.901 1287.18 112.304C1288.18 111.707 1288.97 110.885 1289.53 109.84C1290.11 108.776 1290.4 107.553 1290.4 106.172C1290.4 105.145 1290.23 104.212 1289.89 103.372C1289.57 102.513 1289.12 101.776 1288.52 101.16C1287.92 100.525 1287.21 100.04 1286.39 99.704C1285.59 99.368 1284.69 99.2 1283.7 99.2C1282.4 99.2 1281.24 99.4987 1280.23 100.096C1279.24 100.675 1278.46 101.487 1277.88 102.532C1277.32 103.577 1277.04 104.791 1277.04 106.172C1277.04 107.199 1277.2 108.151 1277.52 109.028C1277.85 109.887 1278.31 110.624 1278.89 111.24C1279.48 111.856 1280.19 112.341 1281.02 112.696C1281.84 113.032 1282.73 113.2 1283.7 113.2ZM1301.43 116V96.96H1304.65V116H1301.43ZM1295.05 99.34V96.4H1311.03V99.34H1295.05ZM1314.68 116V96.4H1317.9V116H1314.68ZM1327.14 116V96.4H1330.36V116H1327.14ZM1316.89 107.32V104.38H1327.84V107.32H1316.89ZM1341.9 116V96.4H1345.12V116H1341.9ZM1344.11 116V113.06H1354.36V116H1344.11ZM1365.64 116.28C1364.24 116.28 1362.94 116.019 1361.72 115.496C1360.51 114.973 1359.45 114.255 1358.53 113.34C1357.62 112.407 1356.9 111.333 1356.37 110.12C1355.87 108.888 1355.62 107.572 1355.62 106.172C1355.62 104.772 1355.87 103.465 1356.37 102.252C1356.9 101.039 1357.61 99.9747 1358.5 99.06C1359.42 98.1267 1360.47 97.408 1361.67 96.904C1362.88 96.3813 1364.19 96.12 1365.59 96.12C1366.99 96.12 1368.28 96.3813 1369.48 96.904C1370.69 97.408 1371.76 98.1267 1372.67 99.06C1373.59 99.9747 1374.29 101.048 1374.8 102.28C1375.32 103.493 1375.58 104.8 1375.58 106.2C1375.58 107.6 1375.32 108.916 1374.8 110.148C1374.29 111.361 1373.59 112.425 1372.67 113.34C1371.77 114.255 1370.72 114.973 1369.51 115.496C1368.31 116.019 1367.02 116.28 1365.64 116.28ZM1365.59 113.2C1366.91 113.2 1368.07 112.901 1369.06 112.304C1370.07 111.707 1370.85 110.885 1371.41 109.84C1371.99 108.776 1372.28 107.553 1372.28 106.172C1372.28 105.145 1372.11 104.212 1371.77 103.372C1371.46 102.513 1371 101.776 1370.4 101.16C1369.81 100.525 1369.1 100.04 1368.27 99.704C1367.47 99.368 1366.58 99.2 1365.59 99.2C1364.28 99.2 1363.12 99.4987 1362.11 100.096C1361.13 100.675 1360.34 101.487 1359.76 102.532C1359.2 103.577 1358.92 104.791 1358.92 106.172C1358.92 107.199 1359.08 108.151 1359.4 109.028C1359.73 109.887 1360.19 110.624 1360.77 111.24C1361.37 111.856 1362.08 112.341 1362.9 112.696C1363.72 113.032 1364.62 113.2 1365.59 113.2ZM1388.82 116.28C1387.4 116.28 1386.09 116.028 1384.87 115.524C1383.68 115.001 1382.63 114.283 1381.74 113.368C1380.84 112.435 1380.15 111.361 1379.66 110.148C1379.18 108.916 1378.94 107.6 1378.94 106.2C1378.94 104.8 1379.18 103.493 1379.66 102.28C1380.15 101.048 1380.84 99.9747 1381.74 99.06C1382.63 98.1453 1383.68 97.4267 1384.87 96.904C1386.09 96.3813 1387.4 96.12 1388.82 96.12C1390.41 96.12 1391.78 96.3813 1392.94 96.904C1394.09 97.4267 1395.12 98.136 1396.02 99.032L1393.83 101.216C1393.25 100.581 1392.54 100.087 1391.7 99.732C1390.88 99.3773 1389.92 99.2 1388.82 99.2C1387.85 99.2 1386.96 99.368 1386.16 99.704C1385.36 100.04 1384.66 100.525 1384.06 101.16C1383.48 101.776 1383.03 102.513 1382.72 103.372C1382.4 104.231 1382.24 105.173 1382.24 106.2C1382.24 107.227 1382.4 108.169 1382.72 109.028C1383.03 109.887 1383.48 110.633 1384.06 111.268C1384.66 111.884 1385.36 112.36 1386.16 112.696C1386.96 113.032 1387.85 113.2 1388.82 113.2C1390.01 113.2 1391.02 113.023 1391.84 112.668C1392.68 112.295 1393.39 111.791 1393.97 111.156L1396.16 113.34C1395.26 114.255 1394.21 114.973 1392.99 115.496C1391.78 116.019 1390.39 116.28 1388.82 116.28ZM1397.92 116L1405.99 96.4H1408.23L1416.23 116H1412.76L1406.49 100.124H1407.67L1401.34 116H1397.92ZM1401.9 112.22V109.42H1412.29V112.22H1401.9ZM1419.66 116V96.4H1422.88V116H1419.66ZM1421.87 116V113.06H1432.12V116H1421.87ZM1071.67 151L1079.74 131.4H1081.98L1089.98 151H1086.51L1080.24 135.124H1081.42L1075.09 151H1071.67ZM1075.65 147.22V144.42H1086.04V147.22H1075.65ZM1093.41 151V131.4H1095.65L1096.63 135.096V151H1093.41ZM1106.99 151L1095.26 135.684L1095.65 131.4L1107.38 146.716L1106.99 151ZM1106.99 151L1106.01 147.556V131.4H1109.23V151H1106.99ZM1116.53 151V148.06H1121.68C1123.03 148.06 1124.2 147.771 1125.21 147.192C1126.24 146.613 1127.03 145.811 1127.59 144.784C1128.17 143.739 1128.46 142.535 1128.46 141.172C1128.46 139.828 1128.17 138.643 1127.59 137.616C1127.01 136.589 1126.21 135.787 1125.18 135.208C1124.18 134.629 1123.01 134.34 1121.68 134.34H1116.53V131.4H1121.77C1123.19 131.4 1124.5 131.652 1125.72 132.156C1126.93 132.641 1127.98 133.332 1128.88 134.228C1129.79 135.105 1130.5 136.141 1131.01 137.336C1131.51 138.512 1131.76 139.8 1131.76 141.2C1131.76 142.581 1131.51 143.869 1131.01 145.064C1130.5 146.259 1129.8 147.304 1128.91 148.2C1128.01 149.077 1126.96 149.768 1125.74 150.272C1124.53 150.757 1123.22 151 1121.82 151H1116.53ZM1114.32 151V131.4H1117.54V151H1114.32ZM1142.33 151V131.4H1145.55V151H1142.33ZM1150.64 151V131.4H1152.88L1153.86 135.096V151H1150.64ZM1164.22 151L1152.48 135.684L1152.88 131.4L1164.61 146.716L1164.22 151ZM1164.22 151L1163.24 147.556V131.4H1166.46V151H1164.22ZM1176.47 151V131.96H1179.69V151H1176.47ZM1170.09 134.34V131.4H1186.08V134.34H1170.09ZM1189.72 151V131.4H1192.94V151H1189.72ZM1191.93 151V148.06H1202.91V151H1191.93ZM1191.93 142.404V139.576H1201.96V142.404H1191.93ZM1191.93 134.34V131.4H1202.77V134.34H1191.93ZM1209.29 142.684V140.024H1214.25C1215.24 140.024 1216 139.772 1216.54 139.268C1217.1 138.745 1217.38 138.027 1217.38 137.112C1217.38 136.291 1217.11 135.6 1216.57 135.04C1216.03 134.48 1215.26 134.2 1214.27 134.2H1209.29V131.4H1214.41C1215.65 131.4 1216.73 131.652 1217.66 132.156C1218.6 132.641 1219.31 133.313 1219.82 134.172C1220.34 135.012 1220.6 135.973 1220.6 137.056C1220.6 138.195 1220.34 139.184 1219.82 140.024C1219.31 140.864 1218.6 141.517 1217.66 141.984C1216.73 142.451 1215.65 142.684 1214.41 142.684H1209.29ZM1207.08 151V131.4H1210.3V151H1207.08ZM1217.83 151L1210.97 142.488L1213.97 141.396L1221.89 151H1217.83ZM1225.12 151V131.4H1227.36L1228.34 135.096V151H1225.12ZM1238.7 151L1226.97 135.684L1227.36 131.4L1239.09 146.716L1238.7 151ZM1238.7 151L1237.72 147.556V131.4H1240.94V151H1238.7ZM1244.57 151L1252.64 131.4H1254.88L1262.88 151H1259.41L1253.14 135.124H1254.32L1247.99 151H1244.57ZM1248.55 147.22V144.42H1258.94V147.22H1248.55ZM1268.75 151V131.96H1271.97V151H1268.75ZM1262.37 134.34V131.4H1278.35V134.34H1262.37ZM1282 151V131.4H1285.22V151H1282ZM1299.32 151.28C1297.92 151.28 1296.61 151.019 1295.4 150.496C1294.18 149.973 1293.12 149.255 1292.21 148.34C1291.29 147.407 1290.57 146.333 1290.05 145.12C1289.55 143.888 1289.29 142.572 1289.29 141.172C1289.29 139.772 1289.55 138.465 1290.05 137.252C1290.57 136.039 1291.28 134.975 1292.18 134.06C1293.09 133.127 1294.15 132.408 1295.34 131.904C1296.56 131.381 1297.86 131.12 1299.26 131.12C1300.66 131.12 1301.96 131.381 1303.15 131.904C1304.37 132.408 1305.43 133.127 1306.35 134.06C1307.26 134.975 1307.97 136.048 1308.47 137.28C1309 138.493 1309.26 139.8 1309.26 141.2C1309.26 142.6 1309 143.916 1308.47 145.148C1307.97 146.361 1307.26 147.425 1306.35 148.34C1305.45 149.255 1304.4 149.973 1303.18 150.496C1301.99 151.019 1300.7 151.28 1299.32 151.28ZM1299.26 148.2C1300.59 148.2 1301.74 147.901 1302.73 147.304C1303.74 146.707 1304.53 145.885 1305.09 144.84C1305.66 143.776 1305.95 142.553 1305.95 141.172C1305.95 140.145 1305.79 139.212 1305.45 138.372C1305.13 137.513 1304.68 136.776 1304.08 136.16C1303.48 135.525 1302.77 135.04 1301.95 134.704C1301.15 134.368 1300.25 134.2 1299.26 134.2C1297.96 134.2 1296.8 134.499 1295.79 135.096C1294.8 135.675 1294.02 136.487 1293.44 137.532C1292.88 138.577 1292.6 139.791 1292.6 141.172C1292.6 142.199 1292.76 143.151 1293.07 144.028C1293.41 144.887 1293.87 145.624 1294.45 146.24C1295.04 146.856 1295.75 147.341 1296.57 147.696C1297.4 148.032 1298.29 148.2 1299.26 148.2ZM1313.37 151V131.4H1315.61L1316.59 135.096V151H1313.37ZM1326.95 151L1315.22 135.684L1315.61 131.4L1327.34 146.716L1326.95 151ZM1326.95 151L1325.97 147.556V131.4H1329.19V151H1326.95ZM1332.83 151L1340.89 131.4H1343.13L1351.14 151H1347.67L1341.39 135.124H1342.57L1336.24 151H1332.83ZM1336.8 147.22V144.42H1347.19V147.22H1336.8ZM1354.56 151V131.4H1357.78V151H1354.56ZM1356.78 151V148.06H1367.02V151H1356.78Z" fill="white"/>
<path d="M431.469 33H447.875V62.7188H461.688V75H416.625V62.7188H431.469V46.3125L418.688 50.4062V37.0938L431.469 33ZM479.701 33H496.107V62.7188H509.92V75H464.857V62.7188H479.701V46.3125L466.92 50.4062V37.0938L479.701 33ZM545.371 45.1875L539.59 57.5938H551.121L545.371 45.1875ZM513.09 75.0312L535.621 33.0312H555.09L577.621 75.0312H559.184L555.871 67.8438H534.84L531.527 75.0312H513.09ZM580.822 74.9688V32.9688H601.322L617.697 53.9688L634.104 32.9688H654.572V74.9688H638.197V52.5625L621.791 74.9688H613.604L597.197 52.5625V74.9688H580.822Z" fill="white"/>
<path d="M423.056 122V102.96H426.276V122H423.056ZM416.672 105.34V102.4H432.66V105.34H416.672ZM438.516 113.684V111.024H443.472C444.461 111.024 445.227 110.772 445.768 110.268C446.328 109.745 446.608 109.027 446.608 108.112C446.608 107.291 446.337 106.6 445.796 106.04C445.255 105.48 444.489 105.2 443.5 105.2H438.516V102.4H443.64C444.872 102.4 445.955 102.652 446.888 103.156C447.821 103.641 448.54 104.313 449.044 105.172C449.567 106.012 449.828 106.973 449.828 108.056C449.828 109.195 449.567 110.184 449.044 111.024C448.54 111.864 447.821 112.517 446.888 112.984C445.955 113.451 444.872 113.684 443.64 113.684H438.516ZM436.304 122V102.4H439.524V122H436.304ZM447.056 122L440.196 113.488L443.192 112.396L451.116 122H447.056ZM452.258 122L460.322 102.4H462.562L470.57 122H467.098L460.826 106.124H462.002L455.674 122H452.258ZM456.234 118.22V115.42H466.622V118.22H456.234ZM476.208 122V119.06H481.36C482.704 119.06 483.88 118.771 484.888 118.192C485.914 117.613 486.708 116.811 487.268 115.784C487.846 114.739 488.136 113.535 488.136 112.172C488.136 110.828 487.846 109.643 487.268 108.616C486.689 107.589 485.886 106.787 484.86 106.208C483.852 105.629 482.685 105.34 481.36 105.34H476.208V102.4H481.444C482.862 102.4 484.178 102.652 485.392 103.156C486.605 103.641 487.66 104.332 488.556 105.228C489.47 106.105 490.18 107.141 490.684 108.336C491.188 109.512 491.44 110.8 491.44 112.2C491.44 113.581 491.188 114.869 490.684 116.064C490.18 117.259 489.48 118.304 488.584 119.2C487.688 120.077 486.633 120.768 485.42 121.272C484.206 121.757 482.9 122 481.5 122H476.208ZM473.996 122V102.4H477.216V122H473.996ZM495.562 122V102.4H498.782V122H495.562ZM508.795 122V102.96H512.015V122H508.795ZM502.411 105.34V102.4H518.399V105.34H502.411ZM522.043 122V102.4H525.263V122H522.043ZM539.364 122.28C537.964 122.28 536.657 122.019 535.444 121.496C534.231 120.973 533.167 120.255 532.252 119.34C531.337 118.407 530.619 117.333 530.096 116.12C529.592 114.888 529.34 113.572 529.34 112.172C529.34 110.772 529.592 109.465 530.096 108.252C530.619 107.039 531.328 105.975 532.224 105.06C533.139 104.127 534.193 103.408 535.388 102.904C536.601 102.381 537.908 102.12 539.308 102.12C540.708 102.12 542.005 102.381 543.2 102.904C544.413 103.408 545.477 104.127 546.392 105.06C547.307 105.975 548.016 107.048 548.52 108.28C549.043 109.493 549.304 110.8 549.304 112.2C549.304 113.6 549.043 114.916 548.52 116.148C548.016 117.361 547.307 118.425 546.392 119.34C545.496 120.255 544.441 120.973 543.228 121.496C542.033 122.019 540.745 122.28 539.364 122.28ZM539.308 119.2C540.633 119.2 541.791 118.901 542.78 118.304C543.788 117.707 544.572 116.885 545.132 115.84C545.711 114.776 546 113.553 546 112.172C546 111.145 545.832 110.212 545.496 109.372C545.179 108.513 544.721 107.776 544.124 107.16C543.527 106.525 542.817 106.04 541.996 105.704C541.193 105.368 540.297 105.2 539.308 105.2C538.001 105.2 536.844 105.499 535.836 106.096C534.847 106.675 534.063 107.487 533.484 108.532C532.924 109.577 532.644 110.791 532.644 112.172C532.644 113.199 532.803 114.151 533.12 115.028C533.456 115.887 533.913 116.624 534.492 117.24C535.089 117.856 535.799 118.341 536.62 118.696C537.441 119.032 538.337 119.2 539.308 119.2ZM553.418 122V102.4H555.658L556.638 106.096V122H553.418ZM566.998 122L555.266 106.684L555.658 102.4L567.39 117.716L566.998 122ZM566.998 122L566.018 118.556V102.4H569.238V122H566.998ZM572.873 122L580.937 102.4H583.177L591.185 122H587.713L581.441 106.124H582.617L576.289 122H572.873ZM576.849 118.22V115.42H587.237V118.22H576.849ZM594.61 122V102.4H597.83V122H594.61ZM596.822 122V119.06H607.07V122H596.822ZM420.34 157V154.2H425.968C426.957 154.2 427.723 153.892 428.264 153.276C428.805 152.66 429.076 151.951 429.076 151.148C429.076 150.607 428.955 150.103 428.712 149.636C428.469 149.169 428.115 148.796 427.648 148.516C427.181 148.236 426.621 148.096 425.968 148.096H420.34V145.296H425.492C426.332 145.296 427.004 145.081 427.508 144.652C428.012 144.223 428.264 143.588 428.264 142.748C428.264 141.908 428.012 141.273 427.508 140.844C427.004 140.415 426.332 140.2 425.492 140.2H420.34V137.4H425.576C426.901 137.4 428.003 137.643 428.88 138.128C429.757 138.613 430.411 139.239 430.84 140.004C431.269 140.769 431.484 141.591 431.484 142.468C431.484 143.495 431.195 144.4 430.616 145.184C430.056 145.968 429.225 146.603 428.124 147.088L428.376 146.08C429.608 146.584 430.569 147.293 431.26 148.208C431.951 149.123 432.296 150.196 432.296 151.428C432.296 152.436 432.044 153.36 431.54 154.2C431.055 155.04 430.327 155.721 429.356 156.244C428.404 156.748 427.228 157 425.828 157H420.34ZM418.128 157V137.4H421.348V157H418.128ZM445.402 157.28C444.002 157.28 442.695 157.019 441.482 156.496C440.269 155.973 439.205 155.255 438.29 154.34C437.375 153.407 436.657 152.333 436.134 151.12C435.63 149.888 435.378 148.572 435.378 147.172C435.378 145.772 435.63 144.465 436.134 143.252C436.657 142.039 437.366 140.975 438.262 140.06C439.177 139.127 440.231 138.408 441.426 137.904C442.639 137.381 443.946 137.12 445.346 137.12C446.746 137.12 448.043 137.381 449.238 137.904C450.451 138.408 451.515 139.127 452.43 140.06C453.345 140.975 454.054 142.048 454.558 143.28C455.081 144.493 455.342 145.8 455.342 147.2C455.342 148.6 455.081 149.916 454.558 151.148C454.054 152.361 453.345 153.425 452.43 154.34C451.534 155.255 450.479 155.973 449.266 156.496C448.071 157.019 446.783 157.28 445.402 157.28ZM445.346 154.2C446.671 154.2 447.829 153.901 448.818 153.304C449.826 152.707 450.61 151.885 451.17 150.84C451.749 149.776 452.038 148.553 452.038 147.172C452.038 146.145 451.87 145.212 451.534 144.372C451.217 143.513 450.759 142.776 450.162 142.16C449.565 141.525 448.855 141.04 448.034 140.704C447.231 140.368 446.335 140.2 445.346 140.2C444.039 140.2 442.882 140.499 441.874 141.096C440.885 141.675 440.101 142.487 439.522 143.532C438.962 144.577 438.682 145.791 438.682 147.172C438.682 148.199 438.841 149.151 439.158 150.028C439.494 150.887 439.951 151.624 440.53 152.24C441.127 152.856 441.837 153.341 442.658 153.696C443.479 154.032 444.375 154.2 445.346 154.2ZM459.456 157V137.4H462.676V157H459.456ZM461.668 157V154.06H471.916V157H461.668ZM475.691 157V137.4H478.911V157H475.691ZM477.903 157V154.06H488.151V157H477.903ZM495.296 149.16L487.652 137.4H491.376L497.34 146.78H495.604L501.568 137.4H505.236L497.536 149.16H495.296ZM494.848 157V147.144H498.068V157H494.848ZM512.845 157L506.405 137.4H509.569L514.413 152.492H513.573L518.305 137.4H520.545L525.277 152.492H524.437L529.281 137.4H532.445L526.005 157H523.765L519.005 141.936H519.845L515.085 157H512.845ZM544.321 157.28C542.921 157.28 541.614 157.019 540.401 156.496C539.187 155.973 538.123 155.255 537.209 154.34C536.294 153.407 535.575 152.333 535.053 151.12C534.549 149.888 534.297 148.572 534.297 147.172C534.297 145.772 534.549 144.465 535.053 143.252C535.575 142.039 536.285 140.975 537.181 140.06C538.095 139.127 539.15 138.408 540.345 137.904C541.558 137.381 542.865 137.12 544.265 137.12C545.665 137.12 546.962 137.381 548.157 137.904C549.37 138.408 550.434 139.127 551.349 140.06C552.263 140.975 552.973 142.048 553.477 143.28C553.999 144.493 554.261 145.8 554.261 147.2C554.261 148.6 553.999 149.916 553.477 151.148C552.973 152.361 552.263 153.425 551.349 154.34C550.453 155.255 549.398 155.973 548.185 156.496C546.99 157.019 545.702 157.28 544.321 157.28ZM544.265 154.2C545.59 154.2 546.747 153.901 547.737 153.304C548.745 152.707 549.529 151.885 550.089 150.84C550.667 149.776 550.957 148.553 550.957 147.172C550.957 146.145 550.789 145.212 550.453 144.372C550.135 143.513 549.678 142.776 549.081 142.16C548.483 141.525 547.774 141.04 546.953 140.704C546.15 140.368 545.254 140.2 544.265 140.2C542.958 140.2 541.801 140.499 540.793 141.096C539.803 141.675 539.019 142.487 538.441 143.532C537.881 144.577 537.601 145.791 537.601 147.172C537.601 148.199 537.759 149.151 538.077 150.028C538.413 150.887 538.87 151.624 539.449 152.24C540.046 152.856 540.755 153.341 541.577 153.696C542.398 154.032 543.294 154.2 544.265 154.2ZM567.61 157.28C566.21 157.28 564.903 157.019 563.69 156.496C562.477 155.973 561.413 155.255 560.498 154.34C559.583 153.407 558.865 152.333 558.342 151.12C557.838 149.888 557.586 148.572 557.586 147.172C557.586 145.772 557.838 144.465 558.342 143.252C558.865 142.039 559.574 140.975 560.47 140.06C561.385 139.127 562.439 138.408 563.634 137.904C564.847 137.381 566.154 137.12 567.554 137.12C568.954 137.12 570.251 137.381 571.446 137.904C572.659 138.408 573.723 139.127 574.638 140.06C575.553 140.975 576.262 142.048 576.766 143.28C577.289 144.493 577.55 145.8 577.55 147.2C577.55 148.6 577.289 149.916 576.766 151.148C576.262 152.361 575.553 153.425 574.638 154.34C573.742 155.255 572.687 155.973 571.474 156.496C570.279 157.019 568.991 157.28 567.61 157.28ZM567.554 154.2C568.879 154.2 570.037 153.901 571.026 153.304C572.034 152.707 572.818 151.885 573.378 150.84C573.957 149.776 574.246 148.553 574.246 147.172C574.246 146.145 574.078 145.212 573.742 144.372C573.425 143.513 572.967 142.776 572.37 142.16C571.773 141.525 571.063 141.04 570.242 140.704C569.439 140.368 568.543 140.2 567.554 140.2C566.247 140.2 565.09 140.499 564.082 141.096C563.093 141.675 562.309 142.487 561.73 143.532C561.17 144.577 560.89 145.791 560.89 147.172C560.89 148.199 561.049 149.151 561.366 150.028C561.702 150.887 562.159 151.624 562.738 152.24C563.335 152.856 564.045 153.341 564.866 153.696C565.687 154.032 566.583 154.2 567.554 154.2ZM583.876 157V154.06H589.028C590.372 154.06 591.548 153.771 592.556 153.192C593.583 152.613 594.376 151.811 594.936 150.784C595.515 149.739 595.804 148.535 595.804 147.172C595.804 145.828 595.515 144.643 594.936 143.616C594.358 142.589 593.555 141.787 592.528 141.208C591.52 140.629 590.354 140.34 589.028 140.34H583.876V137.4H589.112C590.531 137.4 591.847 137.652 593.06 138.156C594.274 138.641 595.328 139.332 596.224 140.228C597.139 141.105 597.848 142.141 598.352 143.336C598.856 144.512 599.108 145.8 599.108 147.2C599.108 148.581 598.856 149.869 598.352 151.064C597.848 152.259 597.148 153.304 596.252 154.2C595.356 155.077 594.302 155.768 593.088 156.272C591.875 156.757 590.568 157 589.168 157H583.876ZM581.664 157V137.4H584.884V157H581.664ZM609.676 157V137.4H611.916L620.064 150.812H618.608L626.756 137.4H628.996V157H625.776V143.056L626.504 143.252L620.456 153.192H618.216L612.168 143.252L612.896 143.056V157H609.676ZM641.647 157.28C640.172 157.28 638.847 156.944 637.671 156.272C636.495 155.6 635.561 154.685 634.871 153.528C634.199 152.352 633.863 151.027 633.863 149.552V137.4H637.083V149.524C637.083 150.476 637.279 151.307 637.671 152.016C638.081 152.707 638.632 153.248 639.323 153.64C640.013 154.013 640.788 154.2 641.647 154.2C642.524 154.2 643.299 154.013 643.971 153.64C644.643 153.248 645.175 152.707 645.567 152.016C645.959 151.307 646.155 150.485 646.155 149.552V137.4H649.375V149.58C649.375 151.055 649.039 152.371 648.367 153.528C647.695 154.685 646.78 155.6 645.623 156.272C644.465 156.944 643.14 157.28 641.647 157.28ZM659.5 157.28C657.951 157.28 656.635 157 655.552 156.44C654.469 155.88 653.499 155.059 652.64 153.976L654.824 151.792C655.365 152.576 656.009 153.192 656.756 153.64C657.503 154.069 658.455 154.284 659.612 154.284C660.695 154.284 661.553 154.06 662.188 153.612C662.841 153.164 663.168 152.548 663.168 151.764C663.168 151.111 663 150.579 662.664 150.168C662.328 149.757 661.88 149.421 661.32 149.16C660.779 148.88 660.172 148.637 659.5 148.432C658.847 148.208 658.184 147.965 657.512 147.704C656.859 147.424 656.252 147.079 655.692 146.668C655.151 146.257 654.712 145.725 654.376 145.072C654.04 144.419 653.872 143.588 653.872 142.58C653.872 141.423 654.152 140.443 654.712 139.64C655.291 138.819 656.065 138.193 657.036 137.764C658.007 137.335 659.089 137.12 660.284 137.12C661.572 137.12 662.72 137.372 663.728 137.876C664.755 138.38 665.585 139.024 666.22 139.808L664.036 141.992C663.476 141.357 662.888 140.891 662.272 140.592C661.675 140.275 660.984 140.116 660.2 140.116C659.229 140.116 658.464 140.312 657.904 140.704C657.363 141.096 657.092 141.647 657.092 142.356C657.092 142.953 657.26 143.439 657.596 143.812C657.932 144.167 658.371 144.475 658.912 144.736C659.472 144.979 660.079 145.212 660.732 145.436C661.404 145.66 662.067 145.912 662.72 146.192C663.392 146.472 663.999 146.836 664.54 147.284C665.1 147.713 665.548 148.273 665.884 148.964C666.22 149.655 666.388 150.523 666.388 151.568C666.388 153.323 665.763 154.713 664.512 155.74C663.28 156.767 661.609 157.28 659.5 157.28ZM670.439 157V137.4H673.659V157H670.439ZM687.647 157.28C686.229 157.28 684.913 157.028 683.699 156.524C682.505 156.001 681.459 155.283 680.563 154.368C679.667 153.435 678.977 152.361 678.491 151.148C678.006 149.916 677.763 148.6 677.763 147.2C677.763 145.8 678.006 144.493 678.491 143.28C678.977 142.048 679.667 140.975 680.563 140.06C681.459 139.145 682.505 138.427 683.699 137.904C684.913 137.381 686.229 137.12 687.647 137.12C689.234 137.12 690.606 137.381 691.763 137.904C692.921 138.427 693.947 139.136 694.843 140.032L692.659 142.216C692.081 141.581 691.371 141.087 690.531 140.732C689.71 140.377 688.749 140.2 687.647 140.2C686.677 140.2 685.79 140.368 684.987 140.704C684.185 141.04 683.485 141.525 682.887 142.16C682.309 142.776 681.861 143.513 681.543 144.372C681.226 145.231 681.067 146.173 681.067 147.2C681.067 148.227 681.226 149.169 681.543 150.028C681.861 150.887 682.309 151.633 682.887 152.268C683.485 152.884 684.185 153.36 684.987 153.696C685.79 154.032 686.677 154.2 687.647 154.2C688.842 154.2 689.85 154.023 690.671 153.668C691.511 153.295 692.221 152.791 692.799 152.156L694.983 154.34C694.087 155.255 693.033 155.973 691.819 156.496C690.606 157.019 689.215 157.28 687.647 157.28Z" fill="white"/>
<path d="M838.906 504.812C838.906 509.031 836.5 511.969 832.25 513.969C836.5 515.969 838.906 518.938 838.906 523.156C838.906 531.906 829.406 536 812.938 536C796.656 536 785.625 533.188 785.625 519.188H802.031C801.969 523.656 807.188 523.469 813.594 523.562C819.75 523.562 822.469 522.562 822.469 520.344C822.469 517.625 820.812 517.656 807.906 517.656V510.312C820.812 510.312 822.469 510.281 822.469 507.625C822.469 505.406 819.5 504.344 813.594 504.375C807.188 504.469 801.969 504.312 802.031 508.781H785.625C785.625 494.781 796.656 491.969 812.938 491.969C829.406 491.969 838.906 496.031 838.906 504.812ZM858.482 512.469H878.482C879.451 512.469 880.295 512.125 880.982 511.438C881.701 510.719 882.045 509.875 882.045 508.906C882.045 507.906 881.701 507.062 880.982 506.375C880.295 505.656 879.451 505.312 878.482 505.312H858.482V512.469ZM842.107 493.031H882.576C891.232 492.938 898.576 500.219 898.451 508.906C898.576 517.562 891.232 524.906 882.576 524.781H858.482V535.031H842.107V493.031ZM904.84 534.969V492.969H925.34L941.715 513.969L958.121 492.969H978.59V534.969H962.215V512.562L945.809 534.969H937.621L921.215 512.562V534.969H904.84Z" fill="white"/>
<path d="M794.688 580.28C793.213 580.28 791.888 579.944 790.712 579.272C789.536 578.6 788.603 577.685 787.912 576.528C787.24 575.352 786.904 574.027 786.904 572.552V560.4H790.124V572.524C790.124 573.476 790.32 574.307 790.712 575.016C791.123 575.707 791.673 576.248 792.364 576.64C793.055 577.013 793.829 577.2 794.688 577.2C795.565 577.2 796.34 577.013 797.012 576.64C797.684 576.248 798.216 575.707 798.608 575.016C799 574.307 799.196 573.485 799.196 572.552V560.4H802.416V572.58C802.416 574.055 802.08 575.371 801.408 576.528C800.736 577.685 799.821 578.6 798.664 579.272C797.507 579.944 796.181 580.28 794.688 580.28ZM809.512 571.684V569.024H814.468C815.457 569.024 816.223 568.772 816.764 568.268C817.324 567.745 817.604 567.027 817.604 566.112C817.604 565.291 817.333 564.6 816.792 564.04C816.251 563.48 815.485 563.2 814.496 563.2H809.512V560.4H814.636C815.868 560.4 816.951 560.652 817.884 561.156C818.817 561.641 819.536 562.313 820.04 563.172C820.563 564.012 820.824 564.973 820.824 566.056C820.824 567.195 820.563 568.184 820.04 569.024C819.536 569.864 818.817 570.517 817.884 570.984C816.951 571.451 815.868 571.684 814.636 571.684H809.512ZM807.3 580V560.4H810.52V580H807.3ZM818.052 580L811.192 571.488L814.188 570.396L822.112 580H818.052ZM827.551 580V577.2H833.179C834.169 577.2 834.934 576.892 835.475 576.276C836.017 575.66 836.287 574.951 836.287 574.148C836.287 573.607 836.166 573.103 835.923 572.636C835.681 572.169 835.326 571.796 834.859 571.516C834.393 571.236 833.833 571.096 833.179 571.096H827.551V568.296H832.703C833.543 568.296 834.215 568.081 834.719 567.652C835.223 567.223 835.475 566.588 835.475 565.748C835.475 564.908 835.223 564.273 834.719 563.844C834.215 563.415 833.543 563.2 832.703 563.2H827.551V560.4H832.787C834.113 560.4 835.214 560.643 836.091 561.128C836.969 561.613 837.622 562.239 838.051 563.004C838.481 563.769 838.695 564.591 838.695 565.468C838.695 566.495 838.406 567.4 837.827 568.184C837.267 568.968 836.437 569.603 835.335 570.088L835.587 569.08C836.819 569.584 837.781 570.293 838.471 571.208C839.162 572.123 839.507 573.196 839.507 574.428C839.507 575.436 839.255 576.36 838.751 577.2C838.266 578.04 837.538 578.721 836.567 579.244C835.615 579.748 834.439 580 833.039 580H827.551ZM825.339 580V560.4H828.559V580H825.339ZM842.141 580L850.205 560.4H852.445L860.453 580H856.981L850.709 564.124H851.885L845.557 580H842.141ZM846.117 576.22V573.42H856.505V576.22H846.117ZM863.879 580V560.4H866.119L867.099 564.096V580H863.879ZM877.459 580L865.727 564.684L866.119 560.4L877.851 575.716L877.459 580ZM877.459 580L876.479 576.556V560.4H879.699V580H877.459ZM891.234 580V560.4H893.474L901.622 573.812H900.166L908.314 560.4H910.554V580H907.334V566.056L908.062 566.252L902.014 576.192H899.774L893.726 566.252L894.454 566.056V580H891.234ZM923.205 580.28C921.73 580.28 920.405 579.944 919.229 579.272C918.053 578.6 917.119 577.685 916.429 576.528C915.757 575.352 915.421 574.027 915.421 572.552V560.4H918.641V572.524C918.641 573.476 918.837 574.307 919.229 575.016C919.639 575.707 920.19 576.248 920.881 576.64C921.571 577.013 922.346 577.2 923.205 577.2C924.082 577.2 924.857 577.013 925.529 576.64C926.201 576.248 926.733 575.707 927.125 575.016C927.517 574.307 927.713 573.485 927.713 572.552V560.4H930.933V572.58C930.933 574.055 930.597 575.371 929.925 576.528C929.253 577.685 928.338 578.6 927.181 579.272C926.023 579.944 924.698 580.28 923.205 580.28ZM941.058 580.28C939.509 580.28 938.193 580 937.11 579.44C936.027 578.88 935.057 578.059 934.198 576.976L936.382 574.792C936.923 575.576 937.567 576.192 938.314 576.64C939.061 577.069 940.013 577.284 941.17 577.284C942.253 577.284 943.111 577.06 943.746 576.612C944.399 576.164 944.726 575.548 944.726 574.764C944.726 574.111 944.558 573.579 944.222 573.168C943.886 572.757 943.438 572.421 942.878 572.16C942.337 571.88 941.73 571.637 941.058 571.432C940.405 571.208 939.742 570.965 939.07 570.704C938.417 570.424 937.81 570.079 937.25 569.668C936.709 569.257 936.27 568.725 935.934 568.072C935.598 567.419 935.43 566.588 935.43 565.58C935.43 564.423 935.71 563.443 936.27 562.64C936.849 561.819 937.623 561.193 938.594 560.764C939.565 560.335 940.647 560.12 941.842 560.12C943.13 560.12 944.278 560.372 945.286 560.876C946.313 561.38 947.143 562.024 947.778 562.808L945.594 564.992C945.034 564.357 944.446 563.891 943.83 563.592C943.233 563.275 942.542 563.116 941.758 563.116C940.787 563.116 940.022 563.312 939.462 563.704C938.921 564.096 938.65 564.647 938.65 565.356C938.65 565.953 938.818 566.439 939.154 566.812C939.49 567.167 939.929 567.475 940.47 567.736C941.03 567.979 941.637 568.212 942.29 568.436C942.962 568.66 943.625 568.912 944.278 569.192C944.95 569.472 945.557 569.836 946.098 570.284C946.658 570.713 947.106 571.273 947.442 571.964C947.778 572.655 947.946 573.523 947.946 574.568C947.946 576.323 947.321 577.713 946.07 578.74C944.838 579.767 943.167 580.28 941.058 580.28ZM951.997 580V560.4H955.217V580H951.997ZM969.205 580.28C967.787 580.28 966.471 580.028 965.257 579.524C964.063 579.001 963.017 578.283 962.121 577.368C961.225 576.435 960.535 575.361 960.049 574.148C959.564 572.916 959.321 571.6 959.321 570.2C959.321 568.8 959.564 567.493 960.049 566.28C960.535 565.048 961.225 563.975 962.121 563.06C963.017 562.145 964.063 561.427 965.257 560.904C966.471 560.381 967.787 560.12 969.205 560.12C970.792 560.12 972.164 560.381 973.321 560.904C974.479 561.427 975.505 562.136 976.401 563.032L974.217 565.216C973.639 564.581 972.929 564.087 972.089 563.732C971.268 563.377 970.307 563.2 969.205 563.2C968.235 563.2 967.348 563.368 966.545 563.704C965.743 564.04 965.043 564.525 964.445 565.16C963.867 565.776 963.419 566.513 963.101 567.372C962.784 568.231 962.625 569.173 962.625 570.2C962.625 571.227 962.784 572.169 963.101 573.028C963.419 573.887 963.867 574.633 964.445 575.268C965.043 575.884 965.743 576.36 966.545 576.696C967.348 577.032 968.235 577.2 969.205 577.2C970.4 577.2 971.408 577.023 972.229 576.668C973.069 576.295 973.779 575.791 974.357 575.156L976.541 577.34C975.645 578.255 974.591 578.973 973.377 579.496C972.164 580.019 970.773 580.28 969.205 580.28Z" fill="white"/>
<line x1="1363.75" y1="329.853" x2="1247.24" y2="192.647" stroke="#FB0015" stroke-width="2"/>
<circle cx="1247" cy="192" r="10" fill="#FB0015"/>
<line x1="894.293" y1="455.572" x2="1021.57" y2="328.293" stroke="#FB0015" stroke-width="2"/>
<circle cx="895" cy="456" r="10" fill="#FB0015"/>
<line x1="1600" y1="330" x2="639" y2="330" stroke="#FB0015" stroke-width="2"/>
<circle cx="1022" cy="329" r="10" fill="#FB0015"/>
<circle cx="1365" cy="329" r="10" fill="#FB0015"/>
<circle cx="639" cy="329" r="10" fill="#FB0015"/>
<line x1="638.572" y1="329.986" x2="511.293" y2="202.707" stroke="#FB0015" stroke-width="2"/>
<circle cx="512" cy="202" r="10" fill="#FB0015"/>
</svg>
