<svg width="556" height="6" viewBox="0 0 556 6" fill="none" xmlns="http://www.w3.org/2000/svg">
<path d="M0.333333 3C0.333333 4.47276 1.52724 5.66667 3 5.66667C4.47276 5.66667 5.66667 4.47276 5.66667 3C5.66667 1.52724 4.47276 0.333333 3 0.333333C1.52724 0.333333 0.333333 1.52724 0.333333 3ZM677.333 2.99994C677.333 4.4727 678.527 5.66661 680 5.66661C681.473 5.66661 682.667 4.4727 682.667 2.99994C682.667 1.52718 681.473 0.333274 680 0.333274C678.527 0.333274 677.333 1.52718 677.333 2.99994ZM3 3L3 3.5L680 3.49994L680 2.99994L680 2.49994L3 2.5L3 3Z" fill="white"/>
</svg>
